<mxfile host="app.diagrams.net" modified="2024-02-19T17:52:59.145Z" agent="Mozilla/5.0 (Macintosh; Intel Mac OS X 10_15_7) AppleWebKit/537.36 (KHTML, like Gecko) Chrome/121.0.0.0 Safari/537.36" etag="NPnaesd6w4UHVSnwWtaM" version="23.1.5" type="github">
  <diagram name="Page-1" id="zKlpec7yXTdc-DUPFT4e">
    <mxGraphModel dx="1434" dy="761" grid="1" gridSize="10" guides="1" tooltips="1" connect="1" arrows="1" fold="1" page="1" pageScale="1" pageWidth="827" pageHeight="1169" math="0" shadow="0">
      <root>
        <mxCell id="0" />
        <mxCell id="1" parent="0" />
        <mxCell id="65U46AjyC3GscZr0AH_9-2" value="&lt;h1&gt;COMPETITION SOFTWARE&lt;/h1&gt;&lt;p&gt;Competition software similar to that of &quot;Smoothcomp&quot;.&lt;/p&gt;&lt;p&gt;Main goals:&lt;/p&gt;&lt;p&gt;&lt;/p&gt;&lt;ul&gt;&lt;li&gt;organizing competition events for combat sports (primarily grappling and bjj)&lt;/li&gt;&lt;li&gt;handling payments&lt;/li&gt;&lt;li&gt;organizing brackets&lt;/li&gt;&lt;li&gt;executing matches/fights&lt;/li&gt;&lt;li&gt;saving results&lt;/li&gt;&lt;li&gt;generating rankings&lt;/li&gt;&lt;/ul&gt;&lt;br&gt;Future goals to consider:&amp;nbsp;&lt;br&gt;&lt;ul&gt;&lt;li&gt;expanding array of supported sports&lt;/li&gt;&lt;/ul&gt;&lt;div&gt;&lt;br&gt;&lt;/div&gt;&lt;div&gt;MODULES:&lt;/div&gt;&lt;div&gt;&lt;ul&gt;&lt;li&gt;RULESETS&lt;/li&gt;&lt;li&gt;EVENTS&lt;/li&gt;&lt;li&gt;PAYMENTS&lt;/li&gt;&lt;li&gt;BRACKETS&lt;/li&gt;&lt;li&gt;MATCHES&lt;/li&gt;&lt;li&gt;RESULTS?&lt;/li&gt;&lt;li&gt;RANKINGS&lt;/li&gt;&lt;/ul&gt;&lt;/div&gt;&lt;div&gt;&lt;br&gt;&lt;/div&gt;&lt;div&gt;&lt;br&gt;&lt;/div&gt;&lt;p&gt;&lt;/p&gt;" style="text;html=1;spacing=5;spacingTop=-20;whiteSpace=wrap;overflow=hidden;rounded=0;" vertex="1" parent="1">
          <mxGeometry x="40" y="40" width="770" height="480" as="geometry" />
        </mxCell>
      </root>
    </mxGraphModel>
  </diagram>
</mxfile>
